:SAMPLES-PER-SECOND 30
:FULLY-SPECIFIED
:DEGREES
172
root  6.049777955 39.75199902 0.0632788898 -15.69598389 -75.92700195 20.66601563
lowerback  15.17770004 2.936929941 -0.8183969855
upperback  6.09360981 3.467220068 -0.5809000134
thorax  -2.05904007 1.610419989 -0.7169470191
lowerneck  4.790880203 4.918749809 -1.696949959
upperneck  4.59705019 6.461540222 -2.570420027
head  0.6556509733 3.15854001 -0.5559340119
lclavicle  0 -9.442270133e-015 7.951389973e-016
lhumerus  -13.13469982 3.697129965 50.21709824
lradius  2.915075507e-031 -1.99278168e-031 145.6430054
lwrist  -7.062250077e-031 -8.827812596e-032 26.77039909
lhand  -1.496451383e-031 -27.76390076 20.11240005
lfingers  90 7.125020027 -90
lthumb  89.89689403 5.08795885 91.16245106
rclavicle  0 -9.442270133e-015 7.951389973e-016
rhumerus  0.3394089937 2.964600086 -65.2881012
rradius  -2.33965549e-031 2.64477905e-031 131.496994
rwrist  7.062250077e-031 -0 -14.69309998
rhand  -7.920061211e-032 -33.2840004 9.303460121
rfingers  -90 -7.125020027 -90
rthumb  -92.93752616 -24.25625642 -97.11982154
rfemur  -15.69029999 12.36390018 3.292560101
rtibia  -0 0 58.3647995
rfoot  -0 -13.75389957 -8.533109665
rtoes  5.373923086 19.29304026 -105.8922705
lfemur  -31.83119965 7.031650066 -8.892849922
ltibia  -0 0 63.72200012
lfoot  4.413940673e-032 0.2261240035 -3.466039896
ltoes  -4.250644065 -19.5611806 -102.515957
173
root  6.047933308 39.5153346 -0.06747822475 -16.34802246 -76.79799652 20.79797363
lowerback  14.99650002 3.075609922 -1.155429959
upperback  6.040629864 3.616270065 -0.3522830009
thorax  -2.053910017 1.678859949 -0.3075129986
lowerneck  4.627150059 5.09307003 -1.948889971
upperneck  4.863900185 6.687880039 -2.400629997
head  0.7508760095 3.26116991 -0.4579919875
lclavicle  0 -9.442270133e-015 7.951389973e-016
lhumerus  -12.03750038 4.10586977 49.60760117
lradius  2.908311365e-031 -2.002640518e-031 145.4490051
lwrist  -7.062250077e-031 1.986257834e-031 26.91930008
lhand  -1.496451383e-031 -27.76390076 20.11240005
lfingers  90 7.125020027 -90
lthumb  89.89689403 5.08795885 91.16245106
rclavicle  0 -9.442270133e-015 7.951389973e-016
rhumerus  2.118360043 1.986700058 -64.5039978
rradius  -2.381136737e-031 2.607495327e-031 132.4019928
rwrist  7.062250077e-031 -1.765562519e-031 -14.49650002
rhand  -7.920061211e-032 -33.2840004 9.303460121
rfingers  -90 -7.125020027 -90
rthumb  -92.93752616 -24.25625642 -97.11982154
rfemur  -14.71090031 12.99989986 3.956039906
rtibia  -0 0 57.60559845
rfoot  -0 -14.89640045 -9.207650185
rtoes  5.373923086 19.29304026 -105.8922705
lfemur  -31.1935997 7.867259979 -9.04172039
ltibia  -0 0 63.33240128
lfoot  -0 0.4168590009 -6.681680202
ltoes  -4.250644065 -19.5611806 -102.515957
174
root  6.042955429 39.24289013 -0.1889759983 -18.03198242 -77.63200378 21.98101807
lowerback  14.80860043 3.218810081 -1.532629967
upperback  5.992499828 3.76019001 -0.3024869859
thorax  -2.032740116 1.746009946 -0.06050080061
lowerneck  4.27670002 5.254290104 -1.966779947
upperneck  5.243569851 6.916820049 -2.244299889
head  0.9193199873 3.366130114 -0.3939540088
lclavicle  0 -9.442270133e-015 7.951389973e-016
lhumerus  -10.90989971 4.587790012 48.83929825
lradius  2.899510116e-031 -2.015362281e-031 145.197998
lwrist  -7.062250077e-031 2.427648464e-031 27.00279999
lhand  -1.496451383e-031 -27.76390076 20.11240005
lfingers  90 7.125020027 -90
lthumb  89.89689403 5.08795885 91.16245106
rclavicle  0 -9.442270133e-015 7.951389973e-016
rhumerus  3.966809988 1.018810034 -64.02330017
rradius  -2.413985104e-031 2.577114657e-031 133.128006
rwrist  7.062250077e-031 1.765562519e-031 -14.45359993
rhand  -7.920061211e-032 -33.2840004 9.303460121
rfingers  -90 -7.125020027 -90
rthumb  -92.93752616 -24.25625642 -97.11982154
rfemur  -13.55620003 13.45129967 4.346610069
rtibia  -0 0 56.83860016
rfoot  -0 -19.20849991 -8.971509933
rtoes  5.373923086 19.29304026 -105.8922705
lfemur  -30.3132 8.456939697 -9.412309647
ltibia  -0 0 62.50450134
lfoot  -0 0.6571409702 -8.850009918
ltoes  -4.250644065 -19.5611806 -102.515957
175
root  6.028022165 38.9700011 -0.2971155672 -19.41400146 -78.26100159 22.92797852
lowerback  14.53629971 3.283070087 -1.831390023
upperback  5.926889896 3.818470001 -0.2237990052
thorax  -1.982079983 1.772740006 0.1907960027
lowerneck  3.855119944 5.421539783 -1.98842001
upperneck  5.693389893 7.156919956 -2.093569994
head  1.122509956 3.475159883 -0.3266440034
lclavicle  0 -9.442270133e-015 7.951389973e-016
lhumerus  -9.909859657 4.871140003 48.19490051
lradius  2.897010517e-031 -2.018953715e-031 145.1269989
lwrist  -1.412450015e-030 1.324171889e-031 27.05139923
lhand  -1.496451383e-031 -27.76390076 20.11240005
lfingers  90 7.125020027 -90
lthumb  89.89689403 5.08795885 91.16245106
rclavicle  0 -9.442270133e-015 7.951389973e-016
rhumerus  5.815480232 0.2746230066 -63.64030075
rradius  -2.43767547e-031 2.554717664e-031 133.6569977
rwrist  0 -0 -14.23700047
rhand  -7.920061211e-032 -33.2840004 9.303460121
rfingers  -90 -7.125020027 -90
rthumb  -92.93752616 -24.25625642 -97.11982154
rfemur  -12.26420021 13.37769985 4.712369919
rtibia  -0 0 56.01039886
rfoot  -0 -22.26819992 -9.665989876
rtoes  5.373923086 19.29304026 -105.8922705
lfemur  -29.42609978 8.830760002 -9.776769638
ltibia  -0 0 61.63119888
lfoot  -0 -1.483049989 -9.366889954
ltoes  -4.250644065 -19.5611806 -102.515957
176
root  6.017288824 38.66044593 -0.3972800229 -19.60198975 -78.91699982 22.75201416
lowerback  14.11330032 3.28098011 -1.869869947
upperback  5.803880215 3.838370085 -0.02605110034
thorax  -1.90249002 1.785290003 0.4327990115
lowerneck  3.588020086 5.601099968 -2.283940077
upperneck  6.147580147 7.393780231 -1.839149952
head  1.288419962 3.578360081 -0.1876530051
lclavicle  0 -9.442270133e-015 7.951389973e-016
lhumerus  -9.170390129 5.153900146 47.75139999
lradius  2.894047476e-031 -2.023198765e-031 145.0429993
lwrist  -7.062250077e-031 8.827812596e-032 26.55319977
lhand  -1.496451383e-031 -27.76390076 20.11240005
lfingers  90 7.125020027 -90
lthumb  89.89689403 5.08795885 91.16245106
rclavicle  0 -9.442270133e-015 7.951389973e-016
rhumerus  7.516379833 -0.1441060007 -63.27330017
rradius  -2.45403338e-031 2.539008509e-031 134.0249939
rwrist  1.412450015e-030 -0 -13.91160011
rhand  -7.920061211e-032 -33.2840004 9.303460121
rfingers  -90 -7.125020027 -90
rthumb  -92.93752616 -24.25625642 -97.11982154
rfemur  -11.15939999 13 5.246910095
rtibia  -0 0 55.23419952
rfoot  -0 -23.24060059 -12.12360001
rtoes  5.373923086 19.29304026 -105.8922705
lfemur  -28.1541996 9.640850067 -9.871990204
ltibia  -0 0 61.20550156
lfoot  8.881026715e-032 -6.275330067 -6.872340202
ltoes  -4.250644065 -19.5611806 -102.515957
